<?xml version="1.0" standalone="no"?>
<!DOCTYPE svg PUBLIC "-//W3C//DTD SVG 20010904//EN"
 "http://www.w3.org/TR/2001/REC-SVG-20010904/DTD/svg10.dtd">
<svg version="1.0" xmlns="http://www.w3.org/2000/svg"
 width="423.000000pt" height="488.000000pt" viewBox="0 0 423.000000 488.000000"
 preserveAspectRatio="xMidYMid meet">

<g transform="translate(0.000000,488.000000) scale(0.100000,-0.100000)"
fill="#000000" stroke="none">
<path d="M1853 4864 c-549 -66 -1050 -333 -1391 -739 -437 -520 -573 -1208
-366 -1845 40 -122 142 -337 210 -442 136 -212 338 -422 553 -575 2 -1 -8 -63
-23 -138 -14 -75 -26 -164 -26 -198 1 -162 67 -315 185 -425 59 -55 70 -70 62
-84 -15 -23 6 -88 48 -142 l34 -44 -307 -4 c-202 -2 -313 -7 -326 -14 -68 -41
101 -45 1654 -42 1503 3 1538 4 1501 41 -9 9 -93 13 -307 15 l-295 3 31 39
c57 73 77 148 40 157 -17 4 -8 16 54 74 55 52 84 89 115 149 72 138 86 260 51
442 -11 57 -20 112 -20 123 0 14 32 44 102 95 121 89 288 252 379 370 363 467
498 1047 373 1609 -227 1018 -1246 1707 -2331 1575z m-708 -1009 c0 -19 -8
-20 -222 -23 -211 -2 -223 -1 -223 16 0 10 3 22 7 26 4 3 104 5 222 4 208 -3
216 -4 216 -23z m1679 9 c3 -9 4 -20 0 -25 -3 -5 -313 -9 -750 -9 -715 0 -744
1 -744 18 0 10 3 22 7 25 3 4 338 7 744 7 664 0 737 -2 743 -16z m694 -11 l3
-23 -200 0 c-188 0 -201 1 -201 18 0 10 3 22 7 26 4 3 93 5 197 4 190 -3 191
-3 194 -25z m-1358 -113 c19 -6 9 -8 -37 -9 -35 -1 -85 -9 -112 -20 -112 -42
-378 -250 -461 -360 -19 -25 -31 -32 -49 -30 -24 4 -22 7 33 69 123 138 344
308 446 344 48 16 139 19 180 6z m-1205 -105 c0 -19 -8 -20 -127 -23 -119 -2
-128 -1 -128 16 0 10 3 22 7 26 4 3 61 5 127 4 113 -3 121 -4 121 -23z m750 0
l-30 -25 -252 0 c-253 0 -272 3 -259 35 4 13 50 15 288 15 l283 -1 -30 -24z
m1323 -2 l3 -23 -273 0 -273 0 -30 25 -30 24 300 -2 300 -2 3 -22z m490 0 l3
-23 -175 0 c-164 0 -176 1 -176 18 0 10 3 22 7 26 4 3 81 5 172 4 164 -3 166
-3 169 -25z m-1240 -199 c81 -17 228 -69 237 -85 4 -5 -5 -5 -20 1 -58 22
-190 51 -272 59 -81 9 -90 8 -110 -11 -22 -21 -63 -21 -136 -3 -22 6 -45 -1
-102 -29 -41 -20 -83 -48 -93 -61 -19 -24 -42 -33 -42 -17 0 17 77 82 126 106
110 55 266 70 412 40z m-808 -24 l-21 -30 -359 0 c-197 0 -365 3 -374 6 -16 6
-22 35 -9 47 3 4 181 7 395 7 l389 0 -21 -30z m2048 6 c2 -10 -2 -22 -10 -27
-7 -5 -189 -9 -405 -9 l-392 0 -21 30 -22 30 424 -2 c405 -3 423 -4 426 -22z
m-1872 -82 c0 -16 3 -45 7 -64 l7 -35 -20 40 c-22 46 -27 99 -7 92 6 -2 12
-17 13 -33z m-178 -75 c-10 -5 -18 -20 -18 -32 -1 -20 -1 -21 -11 -4 -15 25
-4 47 23 47 20 -1 21 -2 6 -11z m-510 -63 c6 -30 -16 -36 -136 -36 -117 0
-133 6 -118 45 5 13 26 15 128 13 111 -3 123 -5 126 -22z m362 19 c0 -3 -7
-17 -16 -30 -15 -23 -23 -25 -90 -25 -77 0 -94 10 -80 45 4 12 25 15 96 15 49
0 90 -2 90 -5z m2195 -25 l0 -25 -320 -3 -320 -2 -17 22 c-10 13 -18 26 -18
31 0 4 152 6 338 5 l337 -3 0 -25z m-2111 -6 c4 -9 -8 -40 -29 -75 -95 -155
-158 -334 -174 -491 -9 -92 -1 -200 19 -252 6 -16 8 -31 6 -33 -3 -3 -17 34
-32 82 -24 78 -26 96 -21 193 6 120 30 223 81 348 37 90 122 244 136 244 4 0
11 -7 14 -16z m186 -120 c0 -3 -14 -23 -30 -44 -92 -116 -111 -298 -55 -514
19 -73 14 -84 -8 -16 -54 167 -61 357 -18 455 27 62 111 152 111 119z m-390
-75 c0 -6 -5 -19 -10 -30 -10 -18 -24 -19 -246 -19 -199 0 -235 2 -240 15 -4
8 -4 22 0 30 5 13 42 15 251 15 167 0 245 -3 245 -11z m1960 -4 c10 -12 10
-18 0 -30 -9 -11 -34 -15 -96 -15 -72 0 -85 3 -94 19 -20 38 -13 41 84 41 71
0 97 -4 106 -15z m355 -15 c0 -25 -1 -25 -101 -28 -81 -2 -104 0 -114 13 -10
12 -10 18 0 30 10 13 33 15 114 13 100 -3 101 -3 101 -28z m-1733 -254 c60
-30 125 -35 135 -10 3 9 -1 29 -11 44 -24 42 -21 42 37 3 160 -108 364 -145
557 -101 9 2 17 -23 26 -82 15 -103 36 -162 71 -208 25 -33 26 -38 20 -126
-11 -170 -77 -299 -202 -393 -94 -71 -185 -104 -305 -110 -224 -12 -424 100
-513 288 -43 90 -57 155 -57 260 0 75 3 85 35 138 48 78 84 186 98 291 l11 87
23 -28 c13 -15 47 -39 75 -53z m-654 37 l-3 -28 -208 -3 c-178 -2 -208 0 -213
13 -4 8 -4 22 0 30 4 13 38 15 216 15 l211 0 -3 -27z m2387 -3 l0 -25 -240 0
-240 0 -3 28 -3 27 243 -2 243 -3 0 -25z m-2536 -204 c6 -7 8 -21 5 -30 -6
-14 -23 -16 -143 -14 -124 3 -136 5 -139 22 -6 30 16 36 144 36 91 0 124 -3
133 -14z m2119 5 c25 -15 9 -46 -24 -49 -29 -3 -30 -1 -26 27 4 32 23 40 50
22z m391 3 c25 -5 31 -11 29 -28 -3 -20 -8 -21 -123 -21 -109 0 -120 2 -123
19 -2 10 2 22 10 27 15 10 161 12 207 3z m-2024 -119 c26 -70 40 -245 19 -245
-20 0 -66 54 -91 107 -50 108 -38 209 24 201 22 -2 30 -13 48 -63z m1321 40
c22 -33 12 -109 -23 -179 -25 -51 -69 -106 -85 -106 -4 0 -8 33 -8 74 0 59 6
86 28 137 16 35 32 72 35 82 9 25 34 21 53 -8z m-1618 -160 c7 -14 12 -28 12
-31 0 -2 -107 -3 -237 -2 -236 3 -238 3 -241 25 -4 27 9 29 264 31 l191 2 11
-25z m2285 18 c62 -5 68 -8 65 -27 -3 -21 -8 -21 -244 -24 -207 -2 -243 0
-247 13 -4 8 1 21 9 30 13 12 46 15 182 15 92 0 198 -3 235 -7z m-2141 -374
c-74 -37 -134 -88 -188 -161 -70 -95 -82 -139 -174 -613 -57 -295 -54 -405 15
-548 22 -44 23 -48 5 -27 -29 35 -75 136 -89 195 -21 87 -15 180 27 400 23
116 50 261 62 324 32 172 72 259 157 345 76 76 204 145 230 124 9 -7 -3 -18
-45 -39z m1722 -350 c38 -30 56 -71 56 -126 0 -26 -18 -271 -41 -543 -42 -524
-44 -531 -95 -550 -15 -6 -354 -10 -860 -10 -890 0 -880 -1 -899 47 -3 10 -26
255 -50 546 -31 377 -41 537 -34 561 5 19 25 48 45 65 l35 31 908 0 c906 0
908 0 935 -21z m-1863 -1246 c36 -43 34 -43 937 -43 l859 0 37 25 c36 24 76
33 76 17 0 -18 -71 -90 -102 -105 -29 -13 -141 -16 -878 -19 l-845 -3 -47 27
c-43 26 -88 80 -88 107 0 17 36 13 51 -6z"/>
<path d="M1780 2413 c-19 -7 -70 -54 -70 -65 0 -4 12 -3 26 2 33 13 126 13
160 0 38 -15 40 -7 7 30 -28 31 -87 48 -123 33z"/>
<path d="M2293 2401 c-17 -11 -37 -30 -44 -42 -10 -20 -9 -21 7 -14 32 14 142
18 174 7 38 -14 38 -4 1 32 -39 37 -95 44 -138 17z"/>
<path d="M1800 2292 c-30 -25 -40 -111 -16 -146 24 -37 50 -48 79 -35 52 24
66 131 22 174 -29 30 -55 32 -85 7z m74 -48 c4 -9 1 -23 -6 -31 -10 -12 -13
-12 -20 1 -9 15 -1 46 12 46 4 0 11 -7 14 -16z"/>
<path d="M2291 2286 c-30 -32 -38 -94 -17 -135 33 -63 89 -63 122 1 31 61 -6
158 -61 158 -12 0 -32 -11 -44 -24z m39 -56 c0 -10 -5 -22 -10 -25 -13 -8 -24
20 -16 41 8 20 26 9 26 -16z"/>
<path d="M1930 1969 c21 -39 70 -60 128 -56 29 2 60 10 67 18 13 13 6 14 -53
11 -59 -3 -71 -1 -105 22 -46 31 -51 32 -37 5z"/>
<path d="M2010 1261 c-68 -24 -140 -98 -164 -167 -24 -72 -21 -178 8 -239 12
-27 35 -64 49 -81 15 -18 27 -44 27 -58 0 -47 31 -66 113 -67 39 -1 95 -3 122
-4 64 -4 92 13 101 62 4 21 22 56 40 77 73 86 86 240 29 345 -67 123 -199 177
-325 132z m154 -43 c25 -8 59 -31 88 -59 101 -101 101 -269 -2 -365 -21 -21
-30 -38 -30 -62 0 -21 -6 -35 -16 -39 -18 -7 -35 14 -27 34 10 24 -14 13 -26
-13 -13 -30 -33 -27 -41 5 -7 29 -24 32 -28 4 -4 -29 -42 -32 -42 -4 0 29 -18
35 -22 9 -2 -15 -10 -23 -23 -23 -15 0 -21 8 -23 34 -2 22 -17 50 -38 75 -88
103 -80 259 19 354 58 56 131 73 211 50z"/>
<path d="M1970 1010 c-40 -40 -14 -120 39 -120 43 0 65 22 65 65 0 64 -62 97
-104 55z"/>
<path d="M2141 1004 c-24 -30 -26 -46 -10 -77 15 -28 28 -37 57 -37 31 0 62
34 62 70 0 64 -71 92 -109 44z"/>
</g>
</svg>
